{
    "asset" : {
        "generator" : "Khronos glTF Blender I/O v1.1.46",
        "version" : "2.0"
    },
    "extensionsUsed" : [
        "KHR_lights_punctual"
    ],
    "extensionsRequired" : [
        "KHR_lights_punctual"
    ],
    "extensions" : {
        "KHR_lights_punctual" : {
            "lights" : [
                {
                    "color" : [
                        1,
                        1,
                        1
                    ],
                    "intensity" : 10000,
                    "type" : "point",
                    "name" : "Light"
                }
            ]
        }
    },
    "scene" : 0,
    "scenes" : [
        {
            "extras" : {
                "glTF2ExportSettings" : {
                    "export_cameras" : 1,
                    "export_extras" : 1,
                    "export_format" : "GLTF_EMBEDDED",
                    "export_lights" : 1,
                    "export_yup" : 0
                }
            },
            "name" : "Scene",
            "nodes" : [
                0,
                1,
                2,
                3,
                4
            ]
        }
    ],
    "nodes" : [
        {
            "extras" : {
                "ground" : 1
            },
            "mesh" : 0,
            "name" : "Course"
        },
        {
            "extensions" : {
                "KHR_lights_punctual" : {
                    "light" : 0
                }
            },
            "name" : "Light",
            "rotation" : [
                0.16907575726509094,
                0.27217137813568115,
                0.7558803558349609,
                0.570947527885437
            ],
            "translation" : [
                -9.221257209777832,
                1.0054539442062378,
                27.105545043945312
            ]
        },
        {
            "camera" : 0,
            "name" : "Camera",
            "rotation" : [
                0.08795160055160522,
                0.3237174153327942,
                0.9091007709503174,
                0.2469966560602188
            ],
            "translation" : [
                25.066926956176758,
                47.44447708129883,
                63.351776123046875
            ]
        },
        {
            "mesh" : 1,
            "name" : "Hole",
            "scale" : [
                0.33625543117523193,
                0.33625543117523193,
                1.0082134008407593
            ],
            "translation" : [
                30.137073516845703,
                -27.959617614746094,
                -1.4715461730957031
            ]
        },
        {
            "extras" : {
                "ball" : 1
            },
            "mesh" : 2,
            "name" : "golf ball",
            "translation" : [
                -4.889907360076904,
                -8.725128173828125,
                12.451640129089355
            ]
        }
    ],
    "cameras" : [
        {
            "name" : "Camera",
            "perspective" : {
                "yfov" : 0.4710899940857267,
                "zfar" : 100,
                "znear" : 0.10000000149011612
            },
            "type" : "perspective"
        }
    ],
    "materials" : [
        {
            "doubleSided" : true,
            "emissiveFactor" : [
                0,
                0,
                0
            ],
            "name" : "Material",
            "pbrMetallicRoughness" : {
                "baseColorFactor" : [
                    0.41018396615982056,
                    0.4936509132385254,
                    0.8000000715255737,
                    1
                ],
                "metallicFactor" : 0,
                "roughnessFactor" : 1
            }
        },
        {
            "doubleSided" : true,
            "emissiveFactor" : [
                0,
                0,
                0
            ],
            "name" : "Grass",
            "pbrMetallicRoughness" : {
                "baseColorFactor" : [
                    0.2571575939655304,
                    0.8000000715255737,
                    0.09697432070970535,
                    1
                ],
                "metallicFactor" : 0,
                "roughnessFactor" : 1
            }
        },
        {
            "doubleSided" : true,
            "emissiveFactor" : [
                0,
                0,
                0
            ],
            "name" : "Hole",
            "pbrMetallicRoughness" : {
                "baseColorFactor" : [
                    0.13013656437397003,
                    0.05612848326563835,
                    0.015208524651825428,
                    1
                ],
                "metallicFactor" : 0,
                "roughnessFactor" : 1
            }
        },
        {
            "doubleSided" : true,
            "emissiveFactor" : [
                0,
                0,
                0
            ],
            "name" : "Ball.001",
            "pbrMetallicRoughness" : {
                "baseColorFactor" : [
                    0.800000011920929,
                    0.800000011920929,
                    0.800000011920929,
                    1
                ],
                "metallicFactor" : 0.09166665375232697,
                "roughnessFactor" : 0.2083333432674408
            }
        }
    ],
    "meshes" : [
        {
            "name" : "Cube",
            "primitives" : [
                {
                    "attributes" : {
                        "POSITION" : 0,
                        "NORMAL" : 1,
                        "TEXCOORD_0" : 2
                    },
                    "indices" : 3,
                    "material" : 0
                },
                {
                    "attributes" : {
                        "POSITION" : 4,
                        "NORMAL" : 5,
                        "TEXCOORD_0" : 6
                    },
                    "indices" : 7,
                    "material" : 1
                },
                {
                    "attributes" : {
                        "POSITION" : 8,
                        "NORMAL" : 9,
                        "TEXCOORD_0" : 10
                    },
                    "indices" : 11,
                    "material" : 2
                }
            ]
        },
        {
            "name" : "Cylinder",
            "primitives" : [
                {
                    "attributes" : {
                        "POSITION" : 12,
                        "NORMAL" : 13,
                        "TEXCOORD_0" : 14
                    },
                    "indices" : 15
                }
            ]
        },
        {
            "name" : "Icosphere.002",
            "primitives" : [
                {
                    "attributes" : {
                        "POSITION" : 16,
                        "NORMAL" : 17,
                        "TEXCOORD_0" : 18,
                        "JOINTS_0" : 19,
                        "WEIGHTS_0" : 20
                    },
                    "indices" : 21,
                    "material" : 3
                }
            ]
        }
    ],
    "accessors" : [
        {
            "bufferView" : 0,
            "componentType" : 5126,
            "count" : 235,
            "max" : [
                10,
                20,
                10.191919326782227
            ],
            "min" : [
                -10,
                -20,
                -1
            ],
            "type" : "VEC3"
        },
        {
            "bufferView" : 1,
            "componentType" : 5126,
            "count" : 235,
            "type" : "VEC3"
        },
        {
            "bufferView" : 2,
            "componentType" : 5126,
            "count" : 235,
            "type" : "VEC2"
        },
        {
            "bufferView" : 3,
            "componentType" : 5123,
            "count" : 453,
            "type" : "SCALAR"
        },
        {
            "bufferView" : 4,
            "componentType" : 5126,
            "count" : 45,
            "max" : [
                9,
                19,
                6.545375347137451
            ],
            "min" : [
                -9,
                -19,
                0.9902618527412415
            ],
            "type" : "VEC3"
        },
        {
            "bufferView" : 5,
            "componentType" : 5126,
            "count" : 45,
            "type" : "VEC3"
        },
        {
            "bufferView" : 6,
            "componentType" : 5126,
            "count" : 45,
            "type" : "VEC2"
        },
        {
            "bufferView" : 7,
            "componentType" : 5123,
            "count" : 99,
            "type" : "SCALAR"
        },
        {
            "bufferView" : 8,
            "componentType" : 5126,
            "count" : 222,
            "max" : [
                5.98318338394165,
                -14.806979179382324,
                0.9998372793197632
            ],
            "min" : [
                4.022207736968994,
                -16.783803939819336,
                -0.6582412123680115
            ],
            "type" : "VEC3"
        },
        {
            "bufferView" : 9,
            "componentType" : 5126,
            "count" : 222,
            "type" : "VEC3"
        },
        {
            "bufferView" : 10,
            "componentType" : 5126,
            "count" : 222,
            "type" : "VEC2"
        },
        {
            "bufferView" : 11,
            "componentType" : 5123,
            "count" : 258,
            "type" : "SCALAR"
        },
        {
            "bufferView" : 12,
            "componentType" : 5126,
            "count" : 1344,
            "max" : [
                3.1175243854522705,
                3.1175241470336914,
                1
            ],
            "min" : [
                -3.117525339126587,
                -3.117525339126587,
                -1
            ],
            "type" : "VEC3"
        },
        {
            "bufferView" : 13,
            "componentType" : 5126,
            "count" : 1344,
            "type" : "VEC3"
        },
        {
            "bufferView" : 14,
            "componentType" : 5126,
            "count" : 1344,
            "type" : "VEC2"
        },
        {
            "bufferView" : 15,
            "componentType" : 5123,
            "count" : 2100,
            "type" : "SCALAR"
        },
        {
            "bufferView" : 16,
            "componentType" : 5126,
            "count" : 2219,
            "max" : [
                0.9766659736633301,
                0.9763193726539612,
                0.9851440787315369
            ],
            "min" : [
                -0.9766660332679749,
                -0.9763193726539612,
                -0.9851440787315369
            ],
            "type" : "VEC3"
        },
        {
            "bufferView" : 17,
            "componentType" : 5126,
            "count" : 2219,
            "type" : "VEC3"
        },
        {
            "bufferView" : 18,
            "componentType" : 5126,
            "count" : 2219,
            "type" : "VEC2"
        },
        {
            "bufferView" : 19,
            "componentType" : 5123,
            "count" : 2219,
            "type" : "VEC4"
        },
        {
            "bufferView" : 20,
            "componentType" : 5126,
            "count" : 2219,
            "type" : "VEC4"
        },
        {
            "bufferView" : 21,
            "componentType" : 5123,
            "count" : 11508,
            "type" : "SCALAR"
        }
    ],
    "bufferViews" : [
        {
            "buffer" : 0,
            "byteLength" : 2820,
            "byteOffset" : 0
        },
        {
            "buffer" : 0,
            "byteLength" : 2820,
            "byteOffset" : 2820
        },
        {
            "buffer" : 0,
            "byteLength" : 1880,
            "byteOffset" : 5640
        },
        {
            "buffer" : 0,
            "byteLength" : 906,
            "byteOffset" : 7520
        },
        {
            "buffer" : 0,
            "byteLength" : 540,
            "byteOffset" : 8428
        },
        {
            "buffer" : 0,
            "byteLength" : 540,
            "byteOffset" : 8968
        },
        {
            "buffer" : 0,
            "byteLength" : 360,
            "byteOffset" : 9508
        },
        {
            "buffer" : 0,
            "byteLength" : 198,
            "byteOffset" : 9868
        },
        {
            "buffer" : 0,
            "byteLength" : 2664,
            "byteOffset" : 10068
        },
        {
            "buffer" : 0,
            "byteLength" : 2664,
            "byteOffset" : 12732
        },
        {
            "buffer" : 0,
            "byteLength" : 1776,
            "byteOffset" : 15396
        },
        {
            "buffer" : 0,
            "byteLength" : 516,
            "byteOffset" : 17172
        },
        {
            "buffer" : 0,
            "byteLength" : 16128,
            "byteOffset" : 17688
        },
        {
            "buffer" : 0,
            "byteLength" : 16128,
            "byteOffset" : 33816
        },
        {
            "buffer" : 0,
            "byteLength" : 10752,
            "byteOffset" : 49944
        },
        {
            "buffer" : 0,
            "byteLength" : 4200,
            "byteOffset" : 60696
        },
        {
            "buffer" : 0,
            "byteLength" : 26628,
            "byteOffset" : 64896
        },
        {
            "buffer" : 0,
            "byteLength" : 26628,
            "byteOffset" : 91524
        },
        {
            "buffer" : 0,
            "byteLength" : 17752,
            "byteOffset" : 118152
        },
        {
            "buffer" : 0,
            "byteLength" : 17752,
            "byteOffset" : 135904
        },
        {
            "buffer" : 0,
            "byteLength" : 35504,
            "byteOffset" : 153656
        },
        {
            "buffer" : 0,
            "byteLength" : 23016,
            "byteOffset" : 189160
        }
    ],
    "buffers" : [
        {
            "byteLength" : 212176,
            "uri" : "data:application/octet-stream;base64,"
        }
    ]
}
