{
    "asset" : {
        "generator" : "Khronos glTF Blender I/O v1.1.46",
        "version" : "2.0"
    },
    "extensionsUsed" : [
        "KHR_lights_punctual"
    ],
    "extensionsRequired" : [
        "KHR_lights_punctual"
    ],
    "extensions" : {
        "KHR_lights_punctual" : {
            "lights" : [
                {
                    "color" : [
                        1,
                        0.5734164714813232,
                        0.2394196093082428
                    ],
                    "intensity" : 5,
                    "type" : "directional",
                    "name" : "Light"
                },
                {
                    "color" : [
                        0.832169771194458,
                        0.8347243070602417,
                        1
                    ],
                    "intensity" : 2,
                    "type" : "directional",
                    "name" : "Sun"
                }
            ]
        }
    },
    "scene" : 0,
    "scenes" : [
        {
            "extras" : {
                "glTF2ExportSettings" : {
                    "export_cameras" : 1,
                    "export_extras" : 1,
                    "export_format" : "GLTF_EMBEDDED",
                    "export_lights" : 1,
                    "export_yup" : 0
                }
            },
            "name" : "Scene",
            "nodes" : [
                0,
                1,
                2,
                3,
                4,
                5
            ]
        }
    ],
    "nodes" : [
        {
            "mesh" : 0,
            "name" : "Hole",
            "scale" : [
                0.33625543117523193,
                0.33625543117523193,
                1.0082134008407593
            ],
            "translation" : [
                30.137073516845703,
                -27.959617614746094,
                -1.4715461730957031
            ]
        },
        {
            "extras" : {
                "ground" : 1
            },
            "mesh" : 1,
            "name" : "Course"
        },
        {
            "extensions" : {
                "KHR_lights_punctual" : {
                    "light" : 0
                }
            },
            "name" : "Light",
            "rotation" : [
                -0.24235114455223083,
                0.14918285608291626,
                0.9072301983833313,
                0.3097478747367859
            ],
            "translation" : [
                -22.752315521240234,
                31.587440490722656,
                73.44379425048828
            ]
        },
        {
            "camera" : 0,
            "name" : "Camera",
            "rotation" : [
                0.08795160055160522,
                0.3237174153327942,
                0.9091007709503174,
                0.2469966560602188
            ],
            "translation" : [
                25.066926956176758,
                47.44447708129883,
                63.351776123046875
            ]
        },
        {
            "extras" : {
                "ball" : 1
            },
            "mesh" : 2,
            "name" : "golf ball",
            "translation" : [
                -3.2253146171569824,
                -1.8670053482055664,
                12.451640129089355
            ]
        },
        {
            "extensions" : {
                "KHR_lights_punctual" : {
                    "light" : 1
                }
            },
            "name" : "Sun",
            "rotation" : [
                0.014997773803770542,
                0.1929648518562317,
                -0.4359011650085449,
                0.878936767578125
            ],
            "translation" : [
                15.258912086486816,
                -8.022727966308594,
                80.05687713623047
            ]
        }
    ],
    "cameras" : [
        {
            "name" : "Camera",
            "perspective" : {
                "yfov" : 0.4710899940857267,
                "zfar" : 100,
                "znear" : 0.10000000149011612
            },
            "type" : "perspective"
        }
    ],
    "materials" : [
        {
            "doubleSided" : true,
            "emissiveFactor" : [
                0,
                0,
                0
            ],
            "name" : "Material",
            "pbrMetallicRoughness" : {
                "baseColorFactor" : [
                    0.41018396615982056,
                    0.4936509132385254,
                    0.8000000715255737,
                    1
                ],
                "metallicFactor" : 0.8916666507720947,
                "roughnessFactor" : 0.2749999761581421
            }
        },
        {
            "doubleSided" : true,
            "emissiveFactor" : [
                0,
                0,
                0
            ],
            "name" : "Grass",
            "pbrMetallicRoughness" : {
                "baseColorFactor" : [
                    0.2571575939655304,
                    0.8000000715255737,
                    0.09697432070970535,
                    1
                ],
                "metallicFactor" : 0,
                "roughnessFactor" : 1
            }
        },
        {
            "doubleSided" : true,
            "emissiveFactor" : [
                0,
                0,
                0
            ],
            "name" : "Hole",
            "pbrMetallicRoughness" : {
                "baseColorFactor" : [
                    0.13013656437397003,
                    0.05612848326563835,
                    0.015208524651825428,
                    1
                ],
                "metallicFactor" : 0,
                "roughnessFactor" : 1
            }
        },
        {
            "doubleSided" : true,
            "emissiveFactor" : [
                0,
                0,
                0
            ],
            "name" : "Ball.001",
            "pbrMetallicRoughness" : {
                "baseColorFactor" : [
                    0.5173336267471313,
                    0.5173336267471313,
                    0.5173336267471313,
                    1
                ],
                "metallicFactor" : 0,
                "roughnessFactor" : 0.30000001192092896
            }
        }
    ],
    "meshes" : [
        {
            "name" : "Cylinder",
            "primitives" : [
                {
                    "attributes" : {
                        "POSITION" : 0,
                        "NORMAL" : 1,
                        "TEXCOORD_0" : 2
                    },
                    "indices" : 3
                }
            ]
        },
        {
            "name" : "Cube",
            "primitives" : [
                {
                    "attributes" : {
                        "POSITION" : 4,
                        "NORMAL" : 5,
                        "TEXCOORD_0" : 6
                    },
                    "indices" : 7,
                    "material" : 0
                },
                {
                    "attributes" : {
                        "POSITION" : 8,
                        "NORMAL" : 9,
                        "TEXCOORD_0" : 10
                    },
                    "indices" : 11,
                    "material" : 1
                },
                {
                    "attributes" : {
                        "POSITION" : 12,
                        "NORMAL" : 13,
                        "TEXCOORD_0" : 14
                    },
                    "indices" : 15,
                    "material" : 2
                }
            ]
        },
        {
            "name" : "Icosphere.002",
            "primitives" : [
                {
                    "attributes" : {
                        "POSITION" : 16,
                        "NORMAL" : 17,
                        "TEXCOORD_0" : 18,
                        "JOINTS_0" : 19,
                        "WEIGHTS_0" : 20
                    },
                    "indices" : 21,
                    "material" : 3
                }
            ]
        }
    ],
    "accessors" : [
        {
            "bufferView" : 0,
            "componentType" : 5126,
            "count" : 1344,
            "max" : [
                3.1175243854522705,
                3.1175241470336914,
                1
            ],
            "min" : [
                -3.117525339126587,
                -3.117525339126587,
                -1
            ],
            "type" : "VEC3"
        },
        {
            "bufferView" : 1,
            "componentType" : 5126,
            "count" : 1344,
            "type" : "VEC3"
        },
        {
            "bufferView" : 2,
            "componentType" : 5126,
            "count" : 1344,
            "type" : "VEC2"
        },
        {
            "bufferView" : 3,
            "componentType" : 5123,
            "count" : 2100,
            "type" : "SCALAR"
        },
        {
            "bufferView" : 4,
            "componentType" : 5126,
            "count" : 235,
            "max" : [
                10,
                20,
                10.191919326782227
            ],
            "min" : [
                -10,
                -20,
                -1
            ],
            "type" : "VEC3"
        },
        {
            "bufferView" : 5,
            "componentType" : 5126,
            "count" : 235,
            "type" : "VEC3"
        },
        {
            "bufferView" : 6,
            "componentType" : 5126,
            "count" : 235,
            "type" : "VEC2"
        },
        {
            "bufferView" : 7,
            "componentType" : 5123,
            "count" : 453,
            "type" : "SCALAR"
        },
        {
            "bufferView" : 8,
            "componentType" : 5126,
            "count" : 45,
            "max" : [
                9,
                19,
                6.545375347137451
            ],
            "min" : [
                -9,
                -19,
                0.9902618527412415
            ],
            "type" : "VEC3"
        },
        {
            "bufferView" : 9,
            "componentType" : 5126,
            "count" : 45,
            "type" : "VEC3"
        },
        {
            "bufferView" : 10,
            "componentType" : 5126,
            "count" : 45,
            "type" : "VEC2"
        },
        {
            "bufferView" : 11,
            "componentType" : 5123,
            "count" : 99,
            "type" : "SCALAR"
        },
        {
            "bufferView" : 12,
            "componentType" : 5126,
            "count" : 222,
            "max" : [
                5.98318338394165,
                -14.806979179382324,
                0.9998372793197632
            ],
            "min" : [
                4.022207736968994,
                -16.783803939819336,
                -0.6582412123680115
            ],
            "type" : "VEC3"
        },
        {
            "bufferView" : 13,
            "componentType" : 5126,
            "count" : 222,
            "type" : "VEC3"
        },
        {
            "bufferView" : 14,
            "componentType" : 5126,
            "count" : 222,
            "type" : "VEC2"
        },
        {
            "bufferView" : 15,
            "componentType" : 5123,
            "count" : 258,
            "type" : "SCALAR"
        },
        {
            "bufferView" : 16,
            "componentType" : 5126,
            "count" : 13913,
            "max" : [
                0.969790518283844,
                0.9688753485679626,
                0.9741369485855103
            ],
            "min" : [
                -0.9697905778884888,
                -0.9688754081726074,
                -0.9741369485855103
            ],
            "type" : "VEC3"
        },
        {
            "bufferView" : 17,
            "componentType" : 5126,
            "count" : 13913,
            "type" : "VEC3"
        },
        {
            "bufferView" : 18,
            "componentType" : 5126,
            "count" : 13913,
            "type" : "VEC2"
        },
        {
            "bufferView" : 19,
            "componentType" : 5123,
            "count" : 13913,
            "type" : "VEC4"
        },
        {
            "bufferView" : 20,
            "componentType" : 5126,
            "count" : 13913,
            "type" : "VEC4"
        },
        {
            "bufferView" : 21,
            "componentType" : 5123,
            "count" : 46080,
            "type" : "SCALAR"
        }
    ],
    "bufferViews" : [
        {
            "buffer" : 0,
            "byteLength" : 16128,
            "byteOffset" : 0
        },
        {
            "buffer" : 0,
            "byteLength" : 16128,
            "byteOffset" : 16128
        },
        {
            "buffer" : 0,
            "byteLength" : 10752,
            "byteOffset" : 32256
        },
        {
            "buffer" : 0,
            "byteLength" : 4200,
            "byteOffset" : 43008
        },
        {
            "buffer" : 0,
            "byteLength" : 2820,
            "byteOffset" : 47208
        },
        {
            "buffer" : 0,
            "byteLength" : 2820,
            "byteOffset" : 50028
        },
        {
            "buffer" : 0,
            "byteLength" : 1880,
            "byteOffset" : 52848
        },
        {
            "buffer" : 0,
            "byteLength" : 906,
            "byteOffset" : 54728
        },
        {
            "buffer" : 0,
            "byteLength" : 540,
            "byteOffset" : 55636
        },
        {
            "buffer" : 0,
            "byteLength" : 540,
            "byteOffset" : 56176
        },
        {
            "buffer" : 0,
            "byteLength" : 360,
            "byteOffset" : 56716
        },
        {
            "buffer" : 0,
            "byteLength" : 198,
            "byteOffset" : 57076
        },
        {
            "buffer" : 0,
            "byteLength" : 2664,
            "byteOffset" : 57276
        },
        {
            "buffer" : 0,
            "byteLength" : 2664,
            "byteOffset" : 59940
        },
        {
            "buffer" : 0,
            "byteLength" : 1776,
            "byteOffset" : 62604
        },
        {
            "buffer" : 0,
            "byteLength" : 516,
            "byteOffset" : 64380
        },
        {
            "buffer" : 0,
            "byteLength" : 166956,
            "byteOffset" : 64896
        },
        {
            "buffer" : 0,
            "byteLength" : 166956,
            "byteOffset" : 231852
        },
        {
            "buffer" : 0,
            "byteLength" : 111304,
            "byteOffset" : 398808
        },
        {
            "buffer" : 0,
            "byteLength" : 111304,
            "byteOffset" : 510112
        },
        {
            "buffer" : 0,
            "byteLength" : 222608,
            "byteOffset" : 621416
        },
        {
            "buffer" : 0,
            "byteLength" : 92160,
            "byteOffset" : 844024
        }
    ],
    "buffers" : [
        {
            "byteLength" : 936184,
            "uri" : "data:application/octet-stream;base64,"
        }
    ]
}
