{
    "asset" : {
        "generator" : "Khronos glTF Blender I/O v1.1.46",
        "version" : "2.0"
    },
    "extensionsUsed" : [
        "KHR_lights_punctual"
    ],
    "extensionsRequired" : [
        "KHR_lights_punctual"
    ],
    "extensions" : {
        "KHR_lights_punctual" : {
            "lights" : [
                {
                    "color" : [
                        1,
                        1,
                        1
                    ],
                    "intensity" : 10000,
                    "type" : "point",
                    "name" : "Light"
                }
            ]
        }
    },
    "scene" : 0,
    "scenes" : [
        {
            "name" : "Scene",
            "nodes" : [
                0,
                1,
                2
            ]
        }
    ],
    "nodes" : [
        {
            "mesh" : 0,
            "name" : "Course"
        },
        {
            "extensions" : {
                "KHR_lights_punctual" : {
                    "light" : 0
                }
            },
            "name" : "Light",
            "rotation" : [
                0.16907575726509094,
                0.27217137813568115,
                0.7558803558349609,
                0.570947527885437
            ],
            "translation" : [
                -9.221257209777832,
                1.0054539442062378,
                27.105545043945312
            ]
        },
        {
            "camera" : 0,
            "name" : "Camera",
            "rotation" : [
                0.08795160055160522,
                0.3237174153327942,
                0.9091007709503174,
                0.2469966560602188
            ],
            "translation" : [
                25.066926956176758,
                47.44447708129883,
                63.351776123046875
            ]
        }
    ],
    "cameras" : [
        {
            "name" : "Camera",
            "perspective" : {
                "yfov" : 0.4710899940857267,
                "zfar" : 100,
                "znear" : 0.10000000149011612
            },
            "type" : "perspective"
        }
    ],
    "materials" : [
        {
            "doubleSided" : true,
            "emissiveFactor" : [
                0,
                0,
                0
            ],
            "name" : "Material",
            "pbrMetallicRoughness" : {
                "baseColorFactor" : [
                    0.5633240938186646,
                    0.6611658930778503,
                    0.8000000715255737,
                    1
                ],
                "metallicFactor" : 0,
                "roughnessFactor" : 1
            }
        },
        {
            "doubleSided" : true,
            "emissiveFactor" : [
                0,
                0,
                0
            ],
            "name" : "Grass",
            "pbrMetallicRoughness" : {
                "baseColorFactor" : [
                    0.2571575939655304,
                    0.8000000715255737,
                    0.09697432070970535,
                    1
                ],
                "metallicFactor" : 0,
                "roughnessFactor" : 1
            }
        },
        {
            "doubleSided" : true,
            "emissiveFactor" : [
                0,
                0,
                0
            ],
            "name" : "Hole",
            "pbrMetallicRoughness" : {
                "baseColorFactor" : [
                    0.13013656437397003,
                    0.05612848326563835,
                    0.015208524651825428,
                    1
                ],
                "metallicFactor" : 0,
                "roughnessFactor" : 1
            }
        }
    ],
    "meshes" : [
        {
            "name" : "Cube",
            "primitives" : [
                {
                    "attributes" : {
                        "POSITION" : 0,
                        "NORMAL" : 1,
                        "TEXCOORD_0" : 2
                    },
                    "indices" : 3,
                    "material" : 0
                },
                {
                    "attributes" : {
                        "POSITION" : 4,
                        "NORMAL" : 5,
                        "TEXCOORD_0" : 6
                    },
                    "indices" : 7,
                    "material" : 1
                },
                {
                    "attributes" : {
                        "POSITION" : 8,
                        "NORMAL" : 9,
                        "TEXCOORD_0" : 10
                    },
                    "indices" : 11,
                    "material" : 2
                }
            ]
        }
    ],
    "accessors" : [
        {
            "bufferView" : 0,
            "componentType" : 5126,
            "count" : 233,
            "max" : [
                10,
                20,
                10.191919326782227
            ],
            "min" : [
                -10,
                -20,
                -1
            ],
            "type" : "VEC3"
        },
        {
            "bufferView" : 1,
            "componentType" : 5126,
            "count" : 233,
            "type" : "VEC3"
        },
        {
            "bufferView" : 2,
            "componentType" : 5126,
            "count" : 233,
            "type" : "VEC2"
        },
        {
            "bufferView" : 3,
            "componentType" : 5123,
            "count" : 453,
            "type" : "SCALAR"
        },
        {
            "bufferView" : 4,
            "componentType" : 5126,
            "count" : 45,
            "max" : [
                9,
                19,
                6.545375347137451
            ],
            "min" : [
                -9,
                -19,
                0.9902618527412415
            ],
            "type" : "VEC3"
        },
        {
            "bufferView" : 5,
            "componentType" : 5126,
            "count" : 45,
            "type" : "VEC3"
        },
        {
            "bufferView" : 6,
            "componentType" : 5126,
            "count" : 45,
            "type" : "VEC2"
        },
        {
            "bufferView" : 7,
            "componentType" : 5123,
            "count" : 99,
            "type" : "SCALAR"
        },
        {
            "bufferView" : 8,
            "componentType" : 5126,
            "count" : 222,
            "max" : [
                5.98318338394165,
                -14.806979179382324,
                0.9998372793197632
            ],
            "min" : [
                4.022207736968994,
                -16.783803939819336,
                -0.6582412123680115
            ],
            "type" : "VEC3"
        },
        {
            "bufferView" : 9,
            "componentType" : 5126,
            "count" : 222,
            "type" : "VEC3"
        },
        {
            "bufferView" : 10,
            "componentType" : 5126,
            "count" : 222,
            "type" : "VEC2"
        },
        {
            "bufferView" : 11,
            "componentType" : 5123,
            "count" : 258,
            "type" : "SCALAR"
        }
    ],
    "bufferViews" : [
        {
            "buffer" : 0,
            "byteLength" : 2796,
            "byteOffset" : 0
        },
        {
            "buffer" : 0,
            "byteLength" : 2796,
            "byteOffset" : 2796
        },
        {
            "buffer" : 0,
            "byteLength" : 1864,
            "byteOffset" : 5592
        },
        {
            "buffer" : 0,
            "byteLength" : 906,
            "byteOffset" : 7456
        },
        {
            "buffer" : 0,
            "byteLength" : 540,
            "byteOffset" : 8364
        },
        {
            "buffer" : 0,
            "byteLength" : 540,
            "byteOffset" : 8904
        },
        {
            "buffer" : 0,
            "byteLength" : 360,
            "byteOffset" : 9444
        },
        {
            "buffer" : 0,
            "byteLength" : 198,
            "byteOffset" : 9804
        },
        {
            "buffer" : 0,
            "byteLength" : 2664,
            "byteOffset" : 10004
        },
        {
            "buffer" : 0,
            "byteLength" : 2664,
            "byteOffset" : 12668
        },
        {
            "buffer" : 0,
            "byteLength" : 1776,
            "byteOffset" : 15332
        },
        {
            "buffer" : 0,
            "byteLength" : 516,
            "byteOffset" : 17108
        }
    ],
    "buffers" : [
        {
            "byteLength" : 17624,
            "uri" : "data:application/octet-stream;base64,"
        }
    ]
}
