{
    "asset" : {
        "generator" : "Khronos glTF Blender I/O v1.1.46",
        "version" : "2.0"
    },
    "extensionsUsed" : [
        "KHR_lights_punctual"
    ],
    "extensionsRequired" : [
        "KHR_lights_punctual"
    ],
    "extensions" : {
        "KHR_lights_punctual" : {
            "lights" : [
                {
                    "color" : [
                        1,
                        0.5734164714813232,
                        0.2394196093082428
                    ],
                    "intensity" : 5,
                    "type" : "directional",
                    "name" : "Light"
                },
                {
                    "color" : [
                        0.832169771194458,
                        0.8347243070602417,
                        1
                    ],
                    "intensity" : 2,
                    "type" : "directional",
                    "name" : "Sun"
                }
            ]
        }
    },
    "scene" : 0,
    "scenes" : [
        {
            "extras" : {
                "glTF2ExportSettings" : {
                    "export_cameras" : 1,
                    "export_extras" : 1,
                    "export_format" : "GLTF_EMBEDDED",
                    "export_lights" : 1,
                    "export_yup" : 0
                }
            },
            "name" : "Scene",
            "nodes" : [
                0,
                1,
                2,
                3,
                4,
                5
            ]
        }
    ],
    "nodes" : [
        {
            "mesh" : 0,
            "name" : "Hole",
            "translation" : [
                30.137073516845703,
                -27.959617614746094,
                -1.4715461730957031
            ]
        },
        {
            "extras" : {
                "ground" : 1
            },
            "mesh" : 1,
            "name" : "Course"
        },
        {
            "extensions" : {
                "KHR_lights_punctual" : {
                    "light" : 0
                }
            },
            "name" : "Light",
            "rotation" : [
                -0.24235114455223083,
                0.14918285608291626,
                0.9072301983833313,
                0.3097478747367859
            ],
            "translation" : [
                -2.7499592304229736,
                3.3803398609161377,
                6.936101913452148
            ]
        },
        {
            "camera" : 0,
            "name" : "Camera",
            "rotation" : [
                0.08795160055160522,
                0.3237174153327942,
                0.9091007709503174,
                0.2469966560602188
            ],
            "translation" : [
                1.3055415153503418,
                2.45326566696167,
                3.268831729888916
            ]
        },
        {
            "extras" : {
                "ball" : 1
            },
            "mesh" : 2,
            "name" : "golf ball",
            "translation" : [
                -0.22118476033210754,
                -0.6329375505447388,
                0.35170507431030273
            ]
        },
        {
            "extensions" : {
                "KHR_lights_punctual" : {
                    "light" : 1
                }
            },
            "name" : "Sun",
            "rotation" : [
                0.014997773803770542,
                0.1929648518562317,
                -0.4359011650085449,
                0.878936767578125
            ],
            "translation" : [
                2.5664913654327393,
                -1.472825527191162,
                6.916756629943848
            ]
        }
    ],
    "cameras" : [
        {
            "name" : "Camera",
            "perspective" : {
                "yfov" : 0.4710899940857267,
                "zfar" : 100,
                "znear" : 0.10000000149011612
            },
            "type" : "perspective"
        }
    ],
    "materials" : [
        {
            "doubleSided" : true,
            "emissiveFactor" : [
                0,
                0,
                0
            ],
            "name" : "Material",
            "pbrMetallicRoughness" : {
                "baseColorFactor" : [
                    0.8879232406616211,
                    0.7011020183563232,
                    0.2831488251686096,
                    1
                ],
                "metallicFactor" : 0,
                "roughnessFactor" : 1
            }
        },
        {
            "doubleSided" : true,
            "emissiveFactor" : [
                0,
                0,
                0
            ],
            "name" : "Grass",
            "pbrMetallicRoughness" : {
                "baseColorFactor" : [
                    0.23040178418159485,
                    0.6938719749450684,
                    0.05034062638878822,
                    1
                ],
                "metallicFactor" : 0,
                "roughnessFactor" : 1
            }
        },
        {
            "doubleSided" : true,
            "emissiveFactor" : [
                0,
                0,
                0
            ],
            "name" : "Hole",
            "pbrMetallicRoughness" : {
                "baseColorFactor" : [
                    0.26225072145462036,
                    0.14702729880809784,
                    0.07421360909938812,
                    1
                ],
                "metallicFactor" : 0,
                "roughnessFactor" : 1
            }
        },
        {
            "doubleSided" : true,
            "emissiveFactor" : [
                0,
                0,
                0
            ],
            "name" : "Ball.001",
            "pbrMetallicRoughness" : {
                "baseColorFactor" : [
                    0.6307574510574341,
                    0.6653875112533569,
                    0.6938720345497131,
                    1
                ],
                "metallicFactor" : 0,
                "roughnessFactor" : 0.30000001192092896
            }
        }
    ],
    "meshes" : [
        {
            "name" : "Cylinder",
            "primitives" : [
                {
                    "attributes" : {
                        "POSITION" : 0,
                        "NORMAL" : 1,
                        "TEXCOORD_0" : 2
                    },
                    "indices" : 3
                }
            ]
        },
        {
            "name" : "Cube",
            "primitives" : [
                {
                    "attributes" : {
                        "POSITION" : 4,
                        "NORMAL" : 5,
                        "TEXCOORD_0" : 6
                    },
                    "indices" : 7,
                    "material" : 0
                },
                {
                    "attributes" : {
                        "POSITION" : 8,
                        "NORMAL" : 9,
                        "TEXCOORD_0" : 10
                    },
                    "indices" : 11,
                    "material" : 1
                },
                {
                    "attributes" : {
                        "POSITION" : 12,
                        "NORMAL" : 13,
                        "TEXCOORD_0" : 14
                    },
                    "indices" : 15,
                    "material" : 2
                }
            ]
        },
        {
            "name" : "Icosphere.002",
            "primitives" : [
                {
                    "attributes" : {
                        "POSITION" : 16,
                        "NORMAL" : 17,
                        "TEXCOORD_0" : 18,
                        "JOINTS_0" : 19,
                        "WEIGHTS_0" : 20
                    },
                    "indices" : 21,
                    "material" : 3
                }
            ]
        }
    ],
    "accessors" : [
        {
            "bufferView" : 0,
            "componentType" : 5126,
            "count" : 1344,
            "max" : [
                0.03999999165534973,
                0.03999999165534973,
                0.03999999910593033
            ],
            "min" : [
                -0.040000006556510925,
                -0.040000010281801224,
                -0.03999999910593033
            ],
            "type" : "VEC3"
        },
        {
            "bufferView" : 1,
            "componentType" : 5126,
            "count" : 1344,
            "type" : "VEC3"
        },
        {
            "bufferView" : 2,
            "componentType" : 5126,
            "count" : 1344,
            "type" : "VEC2"
        },
        {
            "bufferView" : 3,
            "componentType" : 5123,
            "count" : 2100,
            "type" : "SCALAR"
        },
        {
            "bufferView" : 4,
            "componentType" : 5126,
            "count" : 225,
            "max" : [
                0.4385972023010254,
                0.8771944046020508,
                0.447014719247818
            ],
            "min" : [
                -0.4385972023010254,
                -0.8771944046020508,
                -0.04385972023010254
            ],
            "type" : "VEC3"
        },
        {
            "bufferView" : 5,
            "componentType" : 5126,
            "count" : 225,
            "type" : "VEC3"
        },
        {
            "bufferView" : 6,
            "componentType" : 5126,
            "count" : 225,
            "type" : "VEC2"
        },
        {
            "bufferView" : 7,
            "componentType" : 5123,
            "count" : 453,
            "type" : "SCALAR"
        },
        {
            "bufferView" : 8,
            "componentType" : 5126,
            "count" : 45,
            "max" : [
                0.39473748207092285,
                0.8333346247673035,
                0.287078320980072
            ],
            "min" : [
                -0.39473748207092285,
                -0.8333346247673035,
                0.043432608246803284
            ],
            "type" : "VEC3"
        },
        {
            "bufferView" : 9,
            "componentType" : 5126,
            "count" : 45,
            "type" : "VEC3"
        },
        {
            "bufferView" : 10,
            "componentType" : 5126,
            "count" : 45,
            "type" : "VEC2"
        },
        {
            "bufferView" : 11,
            "componentType" : 5123,
            "count" : 99,
            "type" : "SCALAR"
        },
        {
            "bufferView" : 12,
            "componentType" : 5126,
            "count" : 222,
            "max" : [
                0.26242074370384216,
                -0.6494299173355103,
                0.04385257884860039
            ],
            "min" : [
                0.176412895321846,
                -0.7361329793930054,
                -0.028870275244116783
            ],
            "type" : "VEC3"
        },
        {
            "bufferView" : 13,
            "componentType" : 5126,
            "count" : 222,
            "type" : "VEC3"
        },
        {
            "bufferView" : 14,
            "componentType" : 5126,
            "count" : 222,
            "type" : "VEC2"
        },
        {
            "bufferView" : 15,
            "componentType" : 5123,
            "count" : 258,
            "type" : "SCALAR"
        },
        {
            "bufferView" : 16,
            "componentType" : 5126,
            "count" : 13914,
            "max" : [
                0.023499999195337296,
                0.023499999195337296,
                0.023500001057982445
            ],
            "min" : [
                -0.023500001057982445,
                -0.023500001057982445,
                -0.023500001057982445
            ],
            "type" : "VEC3"
        },
        {
            "bufferView" : 17,
            "componentType" : 5126,
            "count" : 13914,
            "type" : "VEC3"
        },
        {
            "bufferView" : 18,
            "componentType" : 5126,
            "count" : 13914,
            "type" : "VEC2"
        },
        {
            "bufferView" : 19,
            "componentType" : 5123,
            "count" : 13914,
            "type" : "VEC4"
        },
        {
            "bufferView" : 20,
            "componentType" : 5126,
            "count" : 13914,
            "type" : "VEC4"
        },
        {
            "bufferView" : 21,
            "componentType" : 5123,
            "count" : 46080,
            "type" : "SCALAR"
        }
    ],
    "bufferViews" : [
        {
            "buffer" : 0,
            "byteLength" : 16128,
            "byteOffset" : 0
        },
        {
            "buffer" : 0,
            "byteLength" : 16128,
            "byteOffset" : 16128
        },
        {
            "buffer" : 0,
            "byteLength" : 10752,
            "byteOffset" : 32256
        },
        {
            "buffer" : 0,
            "byteLength" : 4200,
            "byteOffset" : 43008
        },
        {
            "buffer" : 0,
            "byteLength" : 2700,
            "byteOffset" : 47208
        },
        {
            "buffer" : 0,
            "byteLength" : 2700,
            "byteOffset" : 49908
        },
        {
            "buffer" : 0,
            "byteLength" : 1800,
            "byteOffset" : 52608
        },
        {
            "buffer" : 0,
            "byteLength" : 906,
            "byteOffset" : 54408
        },
        {
            "buffer" : 0,
            "byteLength" : 540,
            "byteOffset" : 55316
        },
        {
            "buffer" : 0,
            "byteLength" : 540,
            "byteOffset" : 55856
        },
        {
            "buffer" : 0,
            "byteLength" : 360,
            "byteOffset" : 56396
        },
        {
            "buffer" : 0,
            "byteLength" : 198,
            "byteOffset" : 56756
        },
        {
            "buffer" : 0,
            "byteLength" : 2664,
            "byteOffset" : 56956
        },
        {
            "buffer" : 0,
            "byteLength" : 2664,
            "byteOffset" : 59620
        },
        {
            "buffer" : 0,
            "byteLength" : 1776,
            "byteOffset" : 62284
        },
        {
            "buffer" : 0,
            "byteLength" : 516,
            "byteOffset" : 64060
        },
        {
            "buffer" : 0,
            "byteLength" : 166968,
            "byteOffset" : 64576
        },
        {
            "buffer" : 0,
            "byteLength" : 166968,
            "byteOffset" : 231544
        },
        {
            "buffer" : 0,
            "byteLength" : 111312,
            "byteOffset" : 398512
        },
        {
            "buffer" : 0,
            "byteLength" : 111312,
            "byteOffset" : 509824
        },
        {
            "buffer" : 0,
            "byteLength" : 222624,
            "byteOffset" : 621136
        },
        {
            "buffer" : 0,
            "byteLength" : 92160,
            "byteOffset" : 843760
        }
    ],
    "buffers" : [
        {
            "byteLength" : 935920,
            "uri" : "data:application/octet-stream;base64,"
        }
    ]
}
