{
    "asset" : {
        "generator" : "Khronos glTF Blender I/O v1.1.46",
        "version" : "2.0"
    },
    "scene" : 0,
    "scenes" : [
        {
            "name" : "Scene",
            "nodes" : [
                0
            ]
        }
    ],
    "nodes" : [
        {
            "mesh" : 0,
            "name" : "Suzanne",
            "scale" : [
                0.47260022163391113,
                0.47260022163391113,
                0.47260022163391113
            ],
            "translation" : [
                0.007205367088317871,
                -0.0024137012660503387,
                -0.9950511455535889
            ]
        }
    ],
    "meshes" : [
        {
            "name" : "Suzanne",
            "primitives" : [
                {
                    "attributes" : {
                        "POSITION" : 0,
                        "NORMAL" : 1,
                        "TEXCOORD_0" : 2,
                        "COLOR_0" : 3
                    },
                    "indices" : 4
                }
            ]
        }
    ],
    "accessors" : [
        {
            "bufferView" : 0,
            "componentType" : 5126,
            "count" : 46822,
            "max" : [
                1.328185796737671,
                0.9392361640930176,
                0.8224414587020874
            ],
            "min" : [
                -1.328185796737671,
                -0.971822202205658,
                -0.7782661318778992
            ],
            "type" : "VEC3"
        },
        {
            "bufferView" : 1,
            "componentType" : 5126,
            "count" : 46822,
            "type" : "VEC3"
        },
        {
            "bufferView" : 2,
            "componentType" : 5126,
            "count" : 46822,
            "type" : "VEC2"
        },
        {
            "bufferView" : 3,
            "componentType" : 5126,
            "count" : 46822,
            "type" : "VEC4"
        },
        {
            "bufferView" : 4,
            "componentType" : 5123,
            "count" : 47232,
            "type" : "SCALAR"
        }
    ],
    "bufferViews" : [
        {
            "buffer" : 0,
            "byteLength" : 561864,
            "byteOffset" : 0
        },
        {
            "buffer" : 0,
            "byteLength" : 561864,
            "byteOffset" : 561864
        },
        {
            "buffer" : 0,
            "byteLength" : 374576,
            "byteOffset" : 1123728
        },
        {
            "buffer" : 0,
            "byteLength" : 749152,
            "byteOffset" : 1498304
        },
        {
            "buffer" : 0,
            "byteLength" : 94464,
            "byteOffset" : 2247456
        }
    ],
    "buffers" : [
        {
            "byteLength" : 2341920,
            "uri" : "data:application/octet-stream;base64,"
        }
    ]
}
